HIERARCHY
ROOT hips
{
	OFFSET -0.003675 0.299928 -0.021708
	CHANNELS 6 Xposition Yposition Zposition Xrotation Yrotation Zrotation
	JOINT LowerBack
	{
		OFFSET 0.000919 0.177588 0.009275
		CHANNELS 3 Xrotation Yrotation Zrotation
		JOINT spine
		{
			OFFSET 0.000919 0.177588 0.009275
			CHANNELS 3 Xrotation Yrotation Zrotation
			JOINT chest
			{
				OFFSET 0.000456 0.100015 0.004638
				CHANNELS 3 Xrotation Yrotation Zrotation
				JOINT neck
				{
					OFFSET 0.000456 0.100015 0.004638
					CHANNELS 3 Xrotation Yrotation Zrotation
					JOINT head
					{
						OFFSET 0.000924 0.155147 0.009274
						CHANNELS 6 Xposition Yposition Zposition Xrotation Yrotation Zrotation
						End Site
						{
							OFFSET 0.000000 0.153400 0.000000
						}
					}
				}
				JOINT shoulder.L
				{
					OFFSET 0.019937 0.078966 0.057518
					CHANNELS 6 Xposition Yposition Zposition Yrotation Xrotation Zrotation
					JOINT upper_arm.L
					{
						OFFSET 0.177024 -0.020465 -0.095062
						CHANNELS 6 Xposition Yposition Zposition Xrotation Yrotation Zrotation
						JOINT forearm.L
						{
							OFFSET 0.247100 -0.135500 -0.061800
							CHANNELS 3 Xrotation Yrotation Zrotation
							JOINT hand.L
							{
								OFFSET 0.217000 -0.143000 0.039300
								CHANNELS 3 Xrotation Yrotation Zrotation
								JOINT palm.01.L
								{
									OFFSET 0.021770 -0.038291 0.012954
									CHANNELS 6 Xposition Yposition Zposition Yrotation Xrotation Zrotation
									JOINT f_index.01.L
									{
										OFFSET 0.053215 -0.044137 0.008236
										CHANNELS 3 Xrotation Yrotation Zrotation
										JOINT f_index.02.L
										{
											OFFSET 0.036108 -0.024723 -0.010656
											CHANNELS 3 Xrotation Yrotation Zrotation
											JOINT f_index.03.L
											{
												OFFSET 0.021342 -0.014948 -0.010846
												CHANNELS 3 Xrotation Yrotation Zrotation
												End Site
												{
													OFFSET 0.015600 -0.009860 -0.013421
												}
											}
										}
									}
									JOINT thumb.01.L
									{
										OFFSET -0.009090 -0.002348 -0.024223
										CHANNELS 6 Xposition Yposition Zposition Xrotation Yrotation Zrotation
										JOINT thumb.02.L
										{
											OFFSET 0.019713 -0.035076 -0.011120
											CHANNELS 3 Xrotation Yrotation Zrotation
											JOINT thumb.03.L
											{
												OFFSET 0.024877 -0.021748 -0.005176
												CHANNELS 3 Xrotation Yrotation Zrotation
												End Site
												{
													OFFSET 0.016125 -0.013029 -0.001569
												}
											}
										}
									}
								}
								JOINT palm.02.L
								{
									OFFSET 0.032823 -0.025104 0.012281
									CHANNELS 6 Xposition Yposition Zposition Yrotation Xrotation Zrotation
									JOINT f_middle.01.L
									{
										OFFSET 0.055723 -0.038469 0.008037
										CHANNELS 3 Xrotation Yrotation Zrotation
										JOINT f_middle.02.L
										{
											OFFSET 0.038167 -0.027473 -0.015582
											CHANNELS 3 Xrotation Yrotation Zrotation
											JOINT f_middle.03.L
											{
												OFFSET 0.021707 -0.016587 -0.017037
												CHANNELS 3 Xrotation Yrotation Zrotation
												End Site
												{
													OFFSET 0.014112 -0.010584 -0.014294
												}
											}
										}
									}
								}
								JOINT palm.03.L
								{
									OFFSET 0.039230 -0.011402 0.008390
									CHANNELS 6 Xposition Yposition Zposition Yrotation Xrotation Zrotation
									JOINT f_ring.01.L
									{
										OFFSET 0.061796 -0.031470 0.007910
										CHANNELS 3 Xrotation Yrotation Zrotation
										JOINT f_ring.02.L
										{
											OFFSET 0.033092 -0.023401 -0.019127
											CHANNELS 3 Xrotation Yrotation Zrotation
											JOINT f_ring.03.L
											{
												OFFSET 0.021392 -0.015362 -0.017824
												CHANNELS 3 Xrotation Yrotation Zrotation
												End Site
												{
													OFFSET 0.008670 -0.007297 -0.014686
												}
											}
										}
									}
								}
								JOINT palm.04.L
								{
									OFFSET 0.043417 0.002450 0.002889
									CHANNELS 6 Xposition Yposition Zposition Yrotation Xrotation Zrotation
									JOINT f_pinky.01.L
									{
										OFFSET 0.069986 -0.026156 0.003627
										CHANNELS 3 Xrotation Yrotation Zrotation
										JOINT f_pinky.02.L
										{
											OFFSET 0.018520 -0.012813 -0.016429
											CHANNELS 3 Xrotation Yrotation Zrotation
											JOINT f_pinky.03.L
											{
												OFFSET 0.013822 -0.009796 -0.014947
												CHANNELS 3 Xrotation Yrotation Zrotation
												End Site
												{
													OFFSET 0.007238 -0.006103 -0.011657
												}
											}
										}
									}
								}
							}
						}
					}
				}
				JOINT shoulder.R
				{
					OFFSET -0.016662 0.078957 0.057696
					CHANNELS 6 Xposition Yposition Zposition Yrotation Xrotation Zrotation
					JOINT upper_arm.R
					{
						OFFSET -0.176972 -0.020537 -0.095144
						CHANNELS 6 Xposition Yposition Zposition Xrotation Yrotation Zrotation
						JOINT forearm.R
						{
							OFFSET -0.247100 -0.135500 -0.061800
							CHANNELS 3 Xrotation Yrotation Zrotation
							JOINT hand.R
							{
								OFFSET -0.217000 -0.143000 0.039300
								CHANNELS 3 Xrotation Yrotation Zrotation
								JOINT palm.01.R
								{
									OFFSET -0.021773 -0.038278 0.012988
									CHANNELS 6 Xposition Yposition Zposition Yrotation Xrotation Zrotation
									JOINT f_index.01.R
									{
										OFFSET -0.053212 -0.044139 0.008249
										CHANNELS 3 Xrotation Yrotation Zrotation
										JOINT f_index.02.R
										{
											OFFSET -0.036049 -0.024835 -0.010634
											CHANNELS 3 Xrotation Yrotation Zrotation
											JOINT f_index.03.R
											{
												OFFSET -0.021371 -0.014881 -0.010866
												CHANNELS 3 Xrotation Yrotation Zrotation
												End Site
												{
													OFFSET -0.015584 -0.009883 -0.013422
												}
											}
										}
									}
									JOINT thumb.01.R
									{
										OFFSET 0.009113 -0.002381 -0.024211
										CHANNELS 6 Xposition Yposition Zposition Xrotation Yrotation Zrotation
										JOINT thumb.02.R
										{
											OFFSET -0.019694 -0.035097 -0.011088
											CHANNELS 3 Xrotation Yrotation Zrotation
											JOINT thumb.03.R
											{
												OFFSET -0.024867 -0.021762 -0.005168
												CHANNELS 3 Xrotation Yrotation Zrotation
												End Site
												{
													OFFSET -0.016120 -0.013036 -0.001565
												}
											}
										}
									}
								}
								JOINT palm.02.R
								{
									OFFSET -0.032828 -0.025095 0.012286
									CHANNELS 6 Xposition Yposition Zposition Yrotation Xrotation Zrotation
									JOINT f_middle.01.R
									{
										OFFSET -0.055721 -0.038472 0.008040
										CHANNELS 3 Xrotation Yrotation Zrotation
										JOINT f_middle.02.R
										{
											OFFSET -0.038101 -0.027593 -0.015557
											CHANNELS 3 Xrotation Yrotation Zrotation
											JOINT f_middle.03.R
											{
												OFFSET -0.021730 -0.016530 -0.017054
												CHANNELS 3 Xrotation Yrotation Zrotation
												End Site
												{
													OFFSET -0.014096 -0.010608 -0.014293
												}
											}
										}
									}
								}
								JOINT palm.03.R
								{
									OFFSET -0.039192 -0.011488 0.008390
									CHANNELS 6 Xposition Yposition Zposition Yrotation Xrotation Zrotation
									JOINT f_ring.01.R
									{
										OFFSET -0.061839 -0.031387 0.007876
										CHANNELS 3 Xrotation Yrotation Zrotation
										JOINT f_ring.02.R
										{
											OFFSET -0.033068 -0.023437 -0.019125
											CHANNELS 3 Xrotation Yrotation Zrotation
											JOINT f_ring.03.R
											{
												OFFSET -0.021371 -0.015393 -0.017822
												CHANNELS 3 Xrotation Yrotation Zrotation
												End Site
												{
													OFFSET -0.008654 -0.007321 -0.014684
												}
											}
										}
									}
								}
								JOINT palm.04.R
								{
									OFFSET -0.043421 0.002443 0.002845
									CHANNELS 6 Xposition Yposition Zposition Yrotation Xrotation Zrotation
									JOINT f_pinky.01.R
									{
										OFFSET -0.069983 -0.026169 0.003599
										CHANNELS 3 Xrotation Yrotation Zrotation
										JOINT f_pinky.02.R
										{
											OFFSET -0.018501 -0.012842 -0.016428
											CHANNELS 3 Xrotation Yrotation Zrotation
											JOINT f_pinky.03.R
											{
												OFFSET -0.013806 -0.009821 -0.014946
												CHANNELS 3 Xrotation Yrotation Zrotation
												End Site
												{
													OFFSET -0.007226 -0.006121 -0.011655
												}
											}
										}
									}
								}
							}
						}
					}
				}
			}
		}
	}
	JOINT pelvis.L
	{
		OFFSET 0.000000 0.000000 0.000000
		CHANNELS 6 Xposition Yposition Zposition Xrotation Yrotation Zrotation
		JOINT thigh.L
		{
			OFFSET 0.101675 0.001054 -0.000000
			CHANNELS 3 Xrotation Yrotation Zrotation
			JOINT shin.L
			{
				OFFSET 0.000000 -0.534800 0.041000
				CHANNELS 3 Xrotation Yrotation Zrotation
				JOINT foot.L
				{
					OFFSET 0.000000 -0.452000 -0.044800
					CHANNELS 3 Xrotation Yrotation Zrotation
					JOINT toe.L
					{
						OFFSET -0.000000 -0.068500 0.109600
						CHANNELS 3 Xrotation Yrotation Zrotation
						End Site
						{
							OFFSET -0.000000 0.000000 0.067200
						}
					}
				}
				JOINT heel.L
				{
					OFFSET 0.000000 -0.452000 -0.044800
					CHANNELS 3 Xrotation Yrotation Zrotation
					JOINT heel.02.L
					{
						OFFSET -0.038000 -0.085200 0.016200
						CHANNELS 6 Xposition Yposition Zposition Xrotation Yrotation Zrotation
						End Site
						{
							OFFSET 0.080000 -0.000000 0.000000
						}
					}
				}
			}
		}
	}
	JOINT pelvis.R
	{
		OFFSET 0.000000 0.000000 0.000000
		CHANNELS 6 Xposition Yposition Zposition Xrotation Yrotation Zrotation
		JOINT thigh.R
		{
			OFFSET -0.094325 0.001054 0.000000
			CHANNELS 3 Xrotation Yrotation Zrotation
			JOINT shin.R
			{
				OFFSET 0.000000 -0.534800 0.041000
				CHANNELS 3 Xrotation Yrotation Zrotation
				JOINT foot.R
				{
					OFFSET 0.000000 -0.452000 -0.044800
					CHANNELS 3 Xrotation Yrotation Zrotation
					JOINT toe.R
					{
						OFFSET -0.000000 -0.068500 0.109600
						CHANNELS 3 Xrotation Yrotation Zrotation
						End Site
						{
							OFFSET -0.000000 0.000000 0.067200
						}
					}
				}
				JOINT heel.R
				{
					OFFSET 0.000000 -0.452000 -0.044800
					CHANNELS 3 Xrotation Yrotation Zrotation
					JOINT heel.02.R
					{
						OFFSET 0.038000 -0.085200 0.016200
						CHANNELS 6 Xposition Yposition Zposition Xrotation Yrotation Zrotation
						End Site
						{
							OFFSET -0.080000 0.000000 -0.000000
						}
					}
				}
			}
		}
	}
}
MOTION
Frames: 4
Frame Time: 0.041667
-0.011592 0.205095 -0.047500 -34.196076 24.126089 65.670186 -0.000001 0.000000 -0.000003 0.000000 0.000004 -0.000001 0.000002 0.000002 -0.000001 0.000002 0.000001 -0.000003 0.000924 0.155148 0.009274 -11.617384 0.034146 -17.998331 0.019937 0.078966 0.057518 36.162198 6.283914 22.679795 0.177025 -0.020465 -0.095062 -8.522550 10.412329 -49.793134 -33.682187 10.125281 -95.312851 -0.000004 0.000001 0.000001 0.021770 -0.038291 0.012954 0.000004 -0.000000 0.000001 -0.000002 -0.000002 -0.000000 0.000001 -0.000001 0.000005 0.000003 0.000003 0.000002 -0.009090 -0.002348 -0.024223 -0.000002 -0.000003 0.000002 -0.000000 0.000001 0.000003 -0.000002 0.000000 0.000003 0.032823 -0.025104 0.012281 0.000002 0.000001 0.000002 0.000000 0.000002 -0.000007 -0.000000 0.000000 0.000001 -0.000002 -0.000001 0.000003 0.039230 -0.011402 0.008390 0.000003 0.000000 0.000003 0.000001 0.000001 -0.000002 0.000001 0.000003 0.000001 -0.000002 -0.000003 0.000003 0.043417 0.002450 0.002889 0.000001 0.000001 -0.000003 0.000000 -0.000008 -0.000000 0.000003 0.000004 -0.000000 0.000004 0.000000 -0.000003 -0.016662 0.078957 0.057696 45.317513 0.412843 -33.557519 -0.176972 -0.020537 -0.095144 -10.301495 -15.982166 66.575329 -38.791899 -16.388049 94.406964 0.000003 -0.000002 0.000004 -0.021773 -0.038278 0.012988 0.000003 -0.000003 -0.000005 -0.000001 0.000004 -0.000004 -0.000001 0.000001 -0.000008 0.000001 0.000002 0.000002 0.009114 -0.002381 -0.024212 -0.000000 -0.000001 0.000001 0.000002 -0.000004 0.000000 -0.000001 -0.000001 -0.000003 -0.032828 -0.025095 0.012286 0.000002 -0.000002 -0.000006 0.000005 -0.000003 0.000000 0.000003 -0.000003 0.000001 -0.000001 0.000000 0.000001 -0.039192 -0.011488 0.008390 0.000002 -0.000000 -0.000004 -0.000003 0.000004 -0.000002 -0.000001 -0.000003 -0.000004 0.000003 0.000008 0.000001 -0.043421 0.002443 0.002845 0.000003 -0.000002 -0.000005 -0.000003 0.000007 -0.000001 -0.000001 -0.000005 -0.000003 -0.000002 0.000000 -0.000002 0.000000 0.000000 -0.000000 -2.635170 -1.151958 10.616006 -145.767534 -0.708829 -7.237095 132.397917 -0.120240 1.215751 -0.000002 0.000001 0.000002 -0.000004 -0.000001 -0.000000 0.000002 0.000003 -0.000000 -0.038000 -0.085200 0.016200 0.000003 0.000003 0.000000 0.000000 0.000000 -0.000000 -2.623733 -1.149685 11.850418 -104.771304 -2.464054 -39.950941 154.022774 -2.584694 27.097961 -0.000002 -0.000000 0.000000 0.000001 -0.000000 -0.000001 0.000005 -0.000001 0.000003 0.038000 -0.085200 0.016200 -0.000002 0.000001 0.000002 
-0.011410 0.202604 -0.046382 -39.728301 26.594375 69.922115 -0.000002 0.000001 0.000001 -0.000004 -0.000003 0.000001 0.000003 0.000002 -0.000001 0.000002 -0.000001 -0.000000 0.000924 0.155148 0.009274 -11.637683 0.031560 -19.657061 0.019937 0.078966 0.057518 29.593451 4.300610 25.699565 0.177024 -0.020465 -0.095062 -3.618870 12.029848 -42.724165 -28.792861 7.844906 -101.778698 -0.000003 -0.000000 -0.000004 0.021770 -0.038291 0.012954 0.000001 0.000001 -0.000001 -0.000001 0.000000 -0.000000 0.000001 0.000001 0.000003 0.000003 0.000001 -0.000002 -0.009090 -0.002348 -0.024223 -0.000000 -0.000002 -0.000001 0.000001 -0.000001 0.000003 -0.000000 -0.000001 -0.000001 0.032823 -0.025104 0.012281 0.000002 -0.000000 0.000005 -0.000002 0.000001 -0.000000 -0.000007 0.000003 0.000001 -0.000003 -0.000003 -0.000001 0.039230 -0.011402 0.008390 0.000001 0.000001 -0.000001 -0.000001 0.000001 0.000003 0.000001 -0.000003 0.000006 -0.000002 -0.000005 0.000006 0.043417 0.002450 0.002889 0.000000 0.000000 -0.000003 0.000001 0.000001 -0.000002 -0.000000 0.000000 -0.000005 0.000001 0.000000 -0.000001 -0.016662 0.078957 0.057696 35.126673 -2.121692 -31.931527 -0.176972 -0.020537 -0.095144 -15.197091 -15.533879 62.940774 -33.669148 -10.121179 94.198520 -0.000000 -0.000001 0.000002 -0.021773 -0.038278 0.012988 -0.000002 -0.000002 -0.000003 -0.000000 0.000001 -0.000001 -0.000000 -0.000000 -0.000003 -0.000002 0.000002 0.000001 0.009114 -0.002381 -0.024212 0.000002 -0.000001 -0.000001 -0.000004 -0.000000 -0.000003 0.000005 -0.000000 0.000003 -0.032828 -0.025095 0.012286 0.000001 -0.000001 0.000001 -0.000000 0.000003 -0.000003 -0.000000 0.000000 -0.000002 0.000003 0.000001 -0.000000 -0.039192 -0.011488 0.008390 -0.000001 0.000000 0.000001 0.000001 0.000003 0.000002 0.000001 -0.000001 0.000002 -0.000001 -0.000002 -0.000003 -0.043421 0.002443 0.002845 -0.000001 0.000000 0.000000 -0.000006 0.000000 -0.000006 0.000003 -0.000005 0.000002 0.000001 -0.000000 0.000001 -0.000000 0.000000 -0.000000 -2.663635 -1.198191 11.009407 -146.901810 -0.457901 -4.015975 130.814925 0.112282 -1.130324 -0.000003 0.000001 -0.000002 0.000002 -0.000003 0.000000 -0.000002 0.000003 -0.000003 -0.038000 -0.085200 0.016200 -0.000002 0.000001 -0.000000 0.000000 0.000000 -0.000000 -2.653690 -1.196150 12.243802 -107.651417 -2.577204 -41.813499 148.816817 -2.679576 28.180691 0.000003 -0.000000 -0.000001 0.000001 0.000000 -0.000001 0.000005 0.000000 -0.000001 0.038000 -0.085200 0.016200 -0.000000 -0.000000 -0.000002 
-0.010159 0.197514 -0.044816 -46.024864 25.015194 75.652719 0.000003 -0.000001 0.000000 -0.000000 -0.000002 0.000000 -0.000000 -0.000002 -0.000003 -0.000001 -0.000005 -0.000001 0.000924 0.155147 0.009274 -9.703765 0.017751 -23.052500 0.019937 0.078966 0.057518 23.658490 2.109361 26.710191 0.177024 -0.020465 -0.095062 -5.789654 11.658334 -35.856745 -25.667337 5.837550 -106.097044 0.000001 -0.000000 -0.000006 0.021770 -0.038291 0.012954 0.000000 -0.000000 -0.000004 0.000001 -0.000002 0.000010 -0.000001 -0.000000 0.000005 -0.000000 0.000002 0.000003 -0.009090 -0.002348 -0.024224 -0.000000 -0.000002 0.000004 0.000001 0.000001 -0.000002 -0.000000 -0.000001 0.000003 0.032823 -0.025104 0.012281 -0.000002 -0.000000 0.000007 -0.000002 0.000003 -0.000003 -0.000003 -0.000003 0.000007 0.000001 0.000003 0.000001 0.039230 -0.011402 0.008390 0.000000 -0.000001 0.000003 0.000001 0.000002 -0.000000 -0.000002 0.000006 -0.000002 0.000000 -0.000002 0.000001 0.043417 0.002450 0.002889 -0.000001 0.000001 -0.000002 -0.000006 -0.000001 0.000003 -0.000001 0.000003 -0.000008 0.000001 0.000003 -0.000003 -0.016662 0.078957 0.057696 26.716048 -3.359206 -31.808410 -0.176972 -0.020537 -0.095144 -15.416333 -14.326154 59.317720 -30.867158 -7.919107 96.571437 -0.000003 -0.000000 -0.000002 -0.021773 -0.038278 0.012988 -0.000004 0.000001 0.000000 -0.000007 0.000004 -0.000003 -0.000003 -0.000002 -0.000005 -0.000004 0.000003 -0.000000 0.009114 -0.002381 -0.024212 -0.000004 -0.000000 -0.000003 0.000000 -0.000001 0.000000 0.000004 0.000001 0.000001 -0.032828 -0.025095 0.012286 -0.000003 0.000002 0.000001 -0.000001 0.000004 -0.000001 -0.000000 0.000002 -0.000002 -0.000003 0.000002 -0.000007 -0.039192 -0.011488 0.008390 -0.000004 0.000005 -0.000000 0.000002 0.000001 -0.000005 -0.000003 -0.000004 -0.000000 0.000001 0.000000 -0.000001 -0.043421 0.002443 0.002845 -0.000003 0.000005 0.000000 -0.000001 0.000004 0.000001 -0.000000 -0.000006 0.000004 0.000001 0.000004 0.000002 -0.000000 0.000000 -0.000000 -2.736489 -1.546575 14.158542 -145.402980 -0.049026 1.419647 131.557107 0.636175 -6.429634 -0.000003 0.000000 0.000001 -0.000001 -0.000001 0.000002 -0.000003 -0.000001 0.000001 -0.038000 -0.085200 0.016200 0.000002 -0.000001 -0.000001 0.000000 0.000000 -0.000000 -2.739621 -1.547399 15.392644 -112.111934 -2.488945 -40.090950 134.636224 -4.213307 48.014563 -0.000002 -0.000001 -0.000002 -0.000001 0.000003 0.000001 0.000002 0.000001 -0.000000 0.038000 -0.085200 0.016200 -0.000001 0.000001 -0.000001 
-0.008671 0.198431 -0.044529 -46.251668 23.681883 76.717969 0.000003 -0.000004 -0.000000 0.000000 -0.000001 -0.000001 0.000000 0.000001 -0.000000 -0.000000 0.000003 -0.000000 0.000924 0.155148 0.009274 -6.726868 0.010866 -20.690853 0.019937 0.078966 0.057518 24.249466 3.036052 28.599303 0.177024 -0.020465 -0.095062 -6.037894 11.163943 -36.366290 -28.341149 10.189387 -108.113978 -0.000001 0.000001 0.000001 0.021770 -0.038291 0.012954 -0.000001 -0.000000 -0.000000 -0.000002 -0.000001 0.000008 0.000000 -0.000000 0.000007 0.000001 0.000003 -0.000003 -0.009090 -0.002348 -0.024223 -0.000000 -0.000001 0.000004 -0.000001 -0.000001 0.000006 -0.000000 -0.000001 0.000001 0.032823 -0.025104 0.012281 -0.000002 -0.000001 0.000005 0.000002 0.000003 -0.000003 -0.000003 -0.000000 0.000007 0.000002 0.000003 0.000004 0.039230 -0.011402 0.008390 -0.000000 0.000001 0.000004 -0.000001 -0.000002 0.000003 0.000001 0.000003 -0.000001 0.000003 -0.000002 0.000003 0.043417 0.002450 0.002889 -0.000001 -0.000000 0.000000 0.000000 -0.000003 -0.000002 0.000002 0.000002 0.000000 -0.000000 0.000000 -0.000000 -0.016662 0.078956 0.057696 27.501132 -1.923093 -34.458246 -0.176972 -0.020537 -0.095144 -12.207508 -14.759627 63.967044 -33.814723 -10.655449 95.927924 0.000002 -0.000001 0.000002 -0.021773 -0.038278 0.012988 0.000002 -0.000005 0.000000 -0.000003 0.000002 0.000001 0.000004 -0.000006 -0.000001 -0.000001 0.000000 -0.000001 0.009114 -0.002381 -0.024212 -0.000000 0.000000 0.000004 0.000000 0.000001 0.000000 0.000001 0.000001 -0.000001 -0.032828 -0.025095 0.012286 -0.000001 -0.000001 0.000002 -0.000003 0.000004 0.000003 0.000003 -0.000003 -0.000001 -0.000003 0.000003 -0.000004 -0.039192 -0.011488 0.008390 0.000001 -0.000003 0.000001 -0.000002 0.000000 -0.000003 0.000003 -0.000001 0.000002 -0.000002 0.000003 -0.000001 -0.043421 0.002443 0.002845 -0.000002 -0.000001 0.000002 -0.000006 0.000003 0.000001 0.000002 0.000006 -0.000000 -0.000008 -0.000002 0.000002 -0.000000 0.000000 -0.000000 -2.663238 -1.638596 15.206433 -144.878353 -0.098942 0.795838 133.410233 0.825968 -8.361106 -0.000002 -0.000001 0.000000 0.000001 0.000001 0.000000 0.000002 0.000002 -0.000001 -0.038000 -0.085200 0.016200 0.000004 -0.000003 -0.000000 -0.000000 0.000000 -0.000000 -2.670471 -1.640634 16.440409 -113.900822 -2.444355 -39.228003 134.285767 -4.092625 46.215901 -0.000003 0.000000 0.000000 0.000005 -0.000001 0.000000 0.000002 -0.000003 -0.000001 0.038000 -0.085200 0.016200 0.000001 0.000001 -0.000001 
